<svg xmlns="http://www.w3.org/2000/svg" viewBox="0 0 1080 1080" preserveAspectRatio="xMidYMid slice">
  <defs>
    <linearGradient id="bg" x1="0" y1="0" x2="1" y2="1">
      <stop offset="0" stop-color="#021128"/>
      <stop offset="0.62" stop-color="#0c1d49"/>
      <stop offset="1" stop-color="#23497b"/>
    </linearGradient>
    <radialGradient id="b1" cx="18%" cy="30%" r="35%">
      <stop offset="0" stop-color="#78c6ff" stop-opacity=".16"/>
      <stop offset="1" stop-color="#78c6ff" stop-opacity="0"/>
    </radialGradient>
    <radialGradient id="b2" cx="78%" cy="68%" r="40%">
      <stop offset="0" stop-color="#ffffff" stop-opacity=".1"/>
      <stop offset="1" stop-color="#ffffff" stop-opacity="0"/>
    </radialGradient>
  </defs>
  <rect width="1080" height="1080" fill="url(#bg)"/>
  <rect width="1080" height="1080" fill="url(#b1)"/>
  <rect width="1080" height="1080" fill="url(#b2)"/>
  <g fill="#fff">
    <circle cx="128" cy="113" r="1.2" opacity=".32"/>
    <circle cx="308" cy="196" r="1.7" opacity=".26"/>
    <circle cx="487" cy="98" r="1" opacity=".5"/>
    <circle cx="681" cy="228" r="1.5" opacity=".34"/>
    <circle cx="891" cy="131" r="1.1" opacity=".46"/>
    <circle cx="1012" cy="287" r="1.4" opacity=".32"/>
    <circle cx="91" cy="426" r="1.5" opacity=".28"/>
    <circle cx="265" cy="536" r="1.1" opacity=".43"/>
    <circle cx="445" cy="391" r="1.8" opacity=".26"/>
    <circle cx="617" cy="526" r="1.2" opacity=".38"/>
    <circle cx="806" cy="417" r="1.7" opacity=".3"/>
    <circle cx="968" cy="577" r="1.1" opacity=".42"/>
    <circle cx="147" cy="747" r="1.6" opacity=".25"/>
    <circle cx="347" cy="879" r="1" opacity=".46"/>
    <circle cx="550" cy="735" r="1.4" opacity=".34"/>
    <circle cx="758" cy="914" r="1.8" opacity=".27"/>
    <circle cx="952" cy="804" r="1.2" opacity=".4"/>
  </g>
</svg>
